<svg width="16" height="16" viewBox="0 0 16 16" fill="none" xmlns="http://www.w3.org/2000/svg">
<g id="interface-icon-star">
<path id="icon-star" d="M7.09251 1.57068C7.39186 0.649372 8.69527 0.649372 8.99462 1.57068L10.0642 4.86248C10.1981 5.2745 10.582 5.55346 11.0152 5.55346H14.4764C15.4452 5.55346 15.8479 6.79308 15.0642 7.36248L12.2641 9.39692C11.9136 9.65157 11.7669 10.1029 11.9008 10.515L12.9704 13.8068C13.2697 14.7281 12.2152 15.4942 11.4315 14.9248L8.63135 12.8903C8.28086 12.6357 7.80627 12.6357 7.45578 12.8903L4.65561 14.9248C3.87189 15.4942 2.81742 14.7281 3.11677 13.8068L4.18634 10.515C4.32021 10.1029 4.17355 9.65157 3.82307 9.39692L1.0229 7.36248C0.239183 6.79308 0.641958 5.55346 1.61068 5.55346H5.07188C5.50511 5.55346 5.88906 5.2745 6.02294 4.86248L7.09251 1.57068Z" fill="#FFAD33"/>
</g>
</svg>
