<svg width="16" height="16" viewBox="0 0 16 16" fill="none" xmlns="http://www.w3.org/2000/svg">
<g id="interface-icon-star">
<path id="icon-star" d="M6.96226 1.57068C7.26161 0.649372 8.56502 0.649372 8.86437 1.57068L9.93394 4.86248C10.0678 5.2745 10.4518 5.55346 10.885 5.55346H14.3462C15.3149 5.55346 15.7177 6.79308 14.934 7.36248L12.1338 9.39692C11.7833 9.65157 11.6367 10.1029 11.7705 10.515L12.8401 13.8068C13.1395 14.7281 12.085 15.4942 11.3013 14.9248L8.5011 12.8903C8.15061 12.6357 7.67602 12.6357 7.32553 12.8903L4.52536 14.9248C3.74165 15.4942 2.68717 14.7281 2.98652 13.8068L4.05609 10.515C4.18996 10.1029 4.0433 9.65157 3.69282 9.39692L0.892647 7.36248C0.108933 6.79308 0.511709 5.55346 1.48043 5.55346H4.94163C5.37486 5.55346 5.75881 5.2745 5.89269 4.86248L6.96226 1.57068Z" fill="#C7C7C7"/>
</g>
</svg>
